<svg data-v-6b3482eb=""
  xmlns="http://www.w3.org/2000/svg" width="178" height="50" viewBox="0 0 178 50">
  <g data-v-6b3482eb="" transform="translate(-749.019 -569.77)">
    <g data-v-6b3482eb="" transform="translate(749.019 569.77)">
      <path data-v-6b3482eb="" fill="#000000" d="M749.019,572.221v.409h2.812l9.374,27.935,7.9-27.976h2.645v-.365h-5.089v.365h2.092l-6.141,21.768-7.333-21.769h2.578v-.367Z" transform="translate(-749.019 -571.731)"></path>
      <path data-v-6b3482eb="" fill="#000000" d="M834.158,598.193h2.478l7.935-27.2h.468l8.236,27.2h2.746v.328h-8.6v-.328h2.544l-2.51-8.331h-8.034l-2.411,8.331h2.476v.328h-5.323Zm13.19-8.74-3.984-13.272-3.849,13.272Z" transform="translate(-817.087 -570.749)"></path>
      <path data-v-6b3482eb="" fill="#000000" d="M950.1,599.184h2.946V572.6h-3.013v-.367h9.509v.367h-3.114l-.033,26.545h5.022a7.087,7.087,0,0,0,6.361-4.656,11.9,11.9,0,0,0,.8-3.8h.267v8.822H950.1Z" transform="translate(-909.724 -571.74)"></path>
      <path data-v-6b3482eb="" fill="#000000" d="M1052.881,599.173h2.812V572.589h-2.645v-.371h17.809v6.821h-.2v-.164a7.567,7.567,0,0,0-2.612-5.512,4.155,4.155,0,0,0-2.878-.777l-6.16.007v12.694h2.009c2.477.042,4.285-2.246,4.519-5.677h.269v12.008h-.235v-.2c-.034-3.552-1.908-5.8-4.887-5.8h-1.674v13.519h5.356c3.951.039,7.131-3.31,7.6-8.046h.166V599.5h-19.249Z" transform="translate(-991.953 -571.729)"></path>
      <path data-v-6b3482eb="" fill="#000000" d="M1158.228,599.184h2.344l.008-26.585h-2.344v-.367h6.294l10.638,20.093V572.6h-2.242v-.367h5.089v.367H1175.5v27.566L1160.914,572.6l-.007,26.581h2.309v.332h-4.989Z" transform="translate(-1076.177 -571.74)"></path>
      <path data-v-6b3482eb="" fill="#000000" d="M1273.085,599.184h2.477V572.6h-1.4c-3.047,0-5.492,2.937-6.161,7.388h-.234v-7.758h18.881v7.8h-.2c-.368-4.043-2.879-7.434-5.557-7.434h-2.042v26.587h2.577v.328h-8.336Z" transform="translate(-1163.748 -571.74)"></path>
      <path data-v-6b3482eb="" fill="#000000" d="M1374.793,599.184h2.71V572.6h-2.678v-.367h8.438v.368h-2.646v26.58h2.646v.332h-8.47Z" transform="translate(-1249.318 -571.74)"></path>
      <path data-v-6b3482eb="" fill="#000000" d="M1429.555,599.184h2.343V572.6h-2.343v-.367h6.294l10.642,20.093V572.6h-2.239v-.367h5.087v.367h-2.509v27.566l-14.6-27.566V599.18h2.311v.332h-4.988Z" transform="translate(-1293.1 -571.74)"></path>
      <path data-v-6b3482eb="" fill="#000000" d="M1534.23,584.391c0-7.8,4.856-14.621,10.38-14.621,5.457,0,10.176,6.82,10.176,14.661,0,7.352-4.82,13.6-10.478,13.6-5.424,0-10.078-6.291-10.078-13.641m16.571,5.965a39.775,39.775,0,0,0,.571-6.659c0-5.228-1.039-9.678-2.778-11.721a5.307,5.307,0,0,0-4.117-1.838c-3.014,0-5.022,2.083-5.993,6.209a32.738,32.738,0,0,0-.87,7.636c0,5.678,1,10.169,2.712,12.131a5.037,5.037,0,0,0,3.883,1.551c3.683,0,5.658-2.165,6.594-7.309" transform="translate(-1376.786 -569.77)"></path>
    </g>
    <g data-v-6b3482eb="" transform="translate(802.55 606.589)">
      <path data-v-6b3482eb="" fill="#000000" d="M1020.956,767.048h-4.963V753.977h4.816c2.169,0,3.787,1.249,3.787,3.415a3,3,0,0,1-2.041,2.937,3.187,3.187,0,0,1,2.243,3.158C1024.8,765.818,1023.273,767.048,1020.956,767.048Zm-.257-12.19h-3.714v5.067h3.714c1.581,0,2.9-.735,2.9-2.534S1022.28,754.859,1020.7,754.859Zm.147,5.948h-3.86v5.361h3.86c1.783,0,2.96-1.01,2.96-2.68S1022.629,760.806,1020.846,760.806Z" transform="translate(-1015.993 -753.977)"></path>
      <path data-v-6b3482eb="" fill="#000000" d="M1079.906,767.048V753.977h7.942v.882H1080.9v5.158h5.919v.881H1080.9v5.269h6.949v.881Z" transform="translate(-1067.091 -753.977)"></path>
      <path data-v-6b3482eb="" fill="#000000" d="M1145.133,767.048l-1.14-3.176h-6.1l-1.14,3.176h-1.066l4.816-13.071h.882l4.817,13.071Zm-4.192-11.749-2.739,7.692h5.478Z" transform="translate(-1111.685 -753.977)"></path>
      <path data-v-6b3482eb="" fill="#000000" d="M1207.285,767.158a4.241,4.241,0,0,1-4.486-4.351v-8.831h.993v8.7a3.494,3.494,0,1,0,6.986,0v-8.7h.993v8.831A4.241,4.241,0,0,1,1207.285,767.158Z" transform="translate(-1165.342 -753.977)"></path>
      <path data-v-6b3482eb="" fill="#000000" d="M1271.429,754.859v12.19h-.993v-12.19h-3.9v-.882h8.806v.882Z" transform="translate(-1216.302 -753.977)"></path>
      <path data-v-6b3482eb="" fill="#000000" d="M1331.174,761.633v5.416h-.993v-5.416l-3.86-7.656h1.065l3.328,6.609,3.254-6.609h1.066Z" transform="translate(-1264.097 -753.977)"></path>
    </g>
  </g>
</svg>